<svg width="34" height="34" viewBox="0 0 34 34" fill="none" xmlns="http://www.w3.org/2000/svg"><g clip-path="url(#clip0_17170_59571)"><path fill-rule="evenodd" clip-rule="evenodd" d="M12.887 2.201A2.416 2.416 0 0115.294 0h3.412c1.25 0 2.296.955 2.407 2.201l.193 2.167c.544.186 1.072.405 1.582.656l1.667-1.395a2.42 2.42 0 013.26.144l2.412 2.413.002.002c.88.884.946 2.296.143 3.256l-1.395 1.667c.252.51.47 1.04.655 1.583l2.167.193A2.416 2.416 0 0134 15.294v3.412c0 1.25-.955 2.296-2.201 2.407l-2.167.193a13.343 13.343 0 01-.656 1.582l1.396 1.667a2.42 2.42 0 01-.145 3.26l-2.413 2.412-.001.002a2.418 2.418 0 01-3.257.143l-1.667-1.395c-.51.252-1.04.47-1.583.655l-.193 2.167A2.417 2.417 0 0118.706 34h-3.412a2.416 2.416 0 01-2.407-2.201l-.193-2.167a13.334 13.334 0 01-1.582-.656l-1.667 1.396a2.42 2.42 0 01-3.26-.145l-2.412-2.413-.002-.001a2.418 2.418 0 01-.143-3.257l1.395-1.667c-.251-.51-.47-1.04-.655-1.583L2.2 21.113A2.416 2.416 0 010 18.706v-3.412c0-1.25.955-2.296 2.201-2.407l2.167-.193c.186-.544.405-1.072.656-1.582L3.629 9.445a2.419 2.419 0 01.144-3.26l2.413-2.412.002-.002a2.418 2.418 0 013.256-.143l1.667 1.395c.51-.251 1.04-.47 1.583-.655l.193-2.167zm2.407-.2a.416.416 0 00-.414.378l-.253 2.833-.06.685-.663.188a11.22 11.22 0 00-2.43 1.007l-.603.339-.53-.444-2.179-1.824a.418.418 0 00-.563.026L5.188 7.6a.418.418 0 00-.025.562l1.824 2.18.443.528-.337.601a11.39 11.39 0 00-1.008 2.434l-.188.661-.685.061-2.833.253a.416.416 0 00-.379.414v3.412c0 .215.165.395.379.415l2.833.252.685.061.188.662c.244.859.582 1.674 1.007 2.43l.339.603-.444.53-1.824 2.18a.419.419 0 00.025.562h.001L7.6 28.814a.418.418 0 00.562.024l2.18-1.824.528-.443.601.337c.76.424 1.576.765 2.433 1.008l.662.188.061.685.253 2.833a.416.416 0 00.414.379h3.412a.416.416 0 00.414-.379l.253-2.832.061-.686.662-.188a11.199 11.199 0 002.43-1.007l.603-.339.53.444 2.18 1.824a.418.418 0 00.562-.026l2.412-2.411a.418.418 0 00.025-.561l-1.825-2.18-.443-.529.337-.601c.424-.76.765-1.576 1.008-2.433l.188-.662.685-.061 2.833-.253a.416.416 0 00.379-.414v-3.412a.416.416 0 00-.379-.414l-2.832-.253-.686-.06-.188-.662a11.217 11.217 0 00-1.007-2.432l-.339-.602.444-.53 1.824-2.179a.418.418 0 00-.026-.563L26.4 5.188a.418.418 0 00-.562-.025l-2.18 1.824-.528.443-.601-.337a11.339 11.339 0 00-2.433-1.008l-.662-.188-.061-.685-.253-2.833A.416.416 0 0018.706 2h-3.412zm-3.142 14.873a1.725 1.725 0 103.406.553 1.725 1.725 0 00-3.406-.553zm1.106 3.954a3.725 3.725 0 111.194-7.355 3.725 3.725 0 01-1.194 7.354zm10.352-3.68a1.73 1.73 0 11-3.462 0 1.73 1.73 0 013.462 0z" fill="#fff"/></g><defs><clipPath id="clip0_17170_59571"><path fill="#fff" d="M0 0h34v34H0z"/></clipPath></defs></svg>